<?xml version="1.0" standalone="no"?>
<!DOCTYPE svg PUBLIC "-//W3C//DTD SVG 20010904//EN"
 "http://www.w3.org/TR/2001/REC-SVG-20010904/DTD/svg10.dtd">
<svg version="1.0" xmlns="http://www.w3.org/2000/svg"
 width="500.000000pt" height="500.000000pt" viewBox="0 0 500.000000 500.000000"
 preserveAspectRatio="xMidYMid meet">
<metadata>
Created by potrace 1.16, written by Peter Selinger 2001-2019
</metadata>
<g transform="translate(0.000000,500.000000) scale(0.100000,-0.100000)"
fill="#000000" stroke="none">
<path d="M4923 4939 c-9 -9 -8 -16 4 -27 14 -14 14 -17 -1 -27 -21 -16 -20
-31 6 -68 12 -16 23 -41 24 -53 2 -21 -3 -24 -47 -30 -47 -6 -79 -31 -62 -48
3 -3 1 -6 -4 -6 -6 0 -13 5 -15 12 -3 7 -26 13 -59 13 -30 1 -60 4 -68 6 -8 2
-17 -4 -19 -14 -2 -12 3 -20 16 -24 11 -3 23 -16 26 -29 4 -14 14 -24 25 -24
25 0 32 -10 18 -25 -22 -21 -55 -35 -85 -35 -40 0 -62 -28 -62 -79 0 -23 -7
-57 -14 -76 -8 -19 -12 -35 -8 -36 4 0 -3 -4 -15 -9 -19 -8 -23 -17 -23 -55 0
-26 -4 -44 -9 -40 -5 3 -13 0 -17 -6 -4 -6 1 -16 10 -21 9 -5 16 -15 16 -23 0
-7 18 -26 40 -42 22 -15 40 -35 40 -43 0 -8 9 -28 20 -45 11 -16 20 -39 20
-51 0 -29 130 -154 159 -154 9 0 22 -9 29 -20 7 -11 20 -20 31 -20 10 0 26 -9
36 -20 10 -11 29 -20 42 -20 l23 0 0 529 c0 520 0 529 -20 534 -18 5 -25 25
-23 75 1 15 -19 16 -34 1z"/>
<path d="M2250 3994 c-110 -8 -272 -35 -357 -60 -148 -43 -247 -98 -333 -184
-72 -72 -138 -165 -126 -177 3 -4 6 0 6 7 0 7 2 11 5 8 3 -2 -4 -31 -15 -64
-36 -102 -50 -191 -50 -312 0 -209 62 -368 198 -508 65 -68 78 -88 30 -46 -12
10 -18 11 -18 3 0 -6 16 -21 35 -32 43 -26 44 -35 4 -43 -54 -11 -60 -8 -54
22 2 15 -1 10 -8 -11 -13 -40 -23 -39 -42 8 -10 23 -13 115 -4 115 3 0 16 -11
29 -25 13 -14 28 -25 33 -25 5 0 -10 19 -34 43 -26 25 -47 38 -51 32 -4 -5 -8
0 -8 12 0 12 -4 24 -8 27 -8 5 -9 0 -13 -66 -3 -32 -5 -35 -21 -27 -10 6 -23
7 -28 4 -5 -3 -12 1 -17 8 -4 8 -18 19 -30 26 -13 6 -23 16 -23 22 0 6 5 7 10
4 6 -3 10 -1 10 4 0 14 -17 14 -25 1 -9 -15 -51 -12 -65 5 -7 8 -9 22 -6 31 4
9 2 22 -4 29 -15 18 -4 23 60 26 51 3 55 1 55 -19 0 -34 17 -30 29 6 6 18 15
30 20 25 5 -4 2 3 -7 17 -19 31 -55 152 -60 205 l-4 40 -1 -40 c-3 -53 -13
-62 -66 -58 -25 2 -47 -1 -51 -6 -9 -15 -55 -14 -56 2 -2 12 -4 32 -7 71 -2
14 -5 16 -16 7 -11 -9 -15 -6 -20 14 -4 14 -11 23 -16 20 -5 -3 -18 3 -29 14
-35 35 -111 17 -111 -26 0 -13 -5 -23 -11 -23 -6 0 -9 -14 -7 -32 3 -31 5 -33
35 -30 25 3 38 -3 58 -23 30 -34 44 -93 24 -106 -22 -14 -29 -11 -29 15 0 14
-5 28 -11 31 -7 5 -9 -6 -7 -31 3 -37 5 -39 38 -40 41 -1 64 -12 73 -36 3 -10
12 -15 19 -13 7 3 19 -4 26 -16 17 -27 5 -40 -13 -15 -11 15 -21 17 -54 11
-34 -6 -41 -4 -41 9 0 13 6 15 27 10 l28 -7 -20 21 c-11 11 -24 16 -28 12 -12
-10 -58 14 -85 45 -17 20 -20 30 -12 50 6 16 17 25 30 25 12 0 19 4 16 9 -3 4
-23 7 -45 6 l-39 -2 -5 46 c-3 25 -1 50 4 56 12 12 12 65 -1 65 -5 0 -10 -11
-10 -25 0 -14 -3 -25 -8 -25 -4 0 -6 20 -4 45 3 35 1 45 -11 45 -8 0 -20 6
-26 14 -8 10 -21 12 -39 7 -28 -7 -135 -5 -208 5 -34 5 -41 9 -37 24 4 15 11
18 32 14 18 -4 32 0 40 10 15 18 15 18 -79 20 -30 1 -56 5 -57 10 -1 5 -7 13
-15 18 -10 8 -9 9 4 4 10 -3 20 -1 23 5 4 5 13 6 22 1 23 -13 128 10 128 28 0
10 -9 14 -28 12 -17 -2 -29 3 -33 13 -9 22 -19 19 -33 -12 -9 -20 -15 -23 -20
-14 -6 9 -11 10 -15 3 -4 -6 -13 -9 -21 -6 -8 3 -32 -2 -54 -12 -36 -16 -38
-19 -23 -30 15 -11 16 -13 1 -19 -11 -4 -15 -15 -13 -34 3 -26 0 -29 -28 -33
-27 -4 -38 1 -71 33 -21 22 -47 39 -57 39 -39 0 -150 130 -150 177 0 18 -43
91 -83 138 -18 22 -27 44 -27 67 0 34 -31 88 -51 88 -5 0 -9 -63 -8 -147 0
-82 3 -142 6 -135 2 6 9 12 14 12 13 0 4 -43 -9 -48 -7 -2 -12 -17 -12 -33 0
-18 4 -28 10 -24 6 3 10 1 10 -4 0 -6 7 -11 15 -11 9 0 18 -12 21 -30 4 -16
13 -30 21 -30 7 0 17 -8 20 -17 4 -10 14 -24 22 -30 14 -12 14 -15 -4 -28 -11
-9 -30 -13 -41 -11 -14 4 -24 0 -28 -10 -4 -11 1 -18 14 -21 11 -3 20 -14 20
-25 0 -27 -41 -20 -57 11 -19 34 -17 55 5 46 14 -5 15 -4 4 6 -6 7 -12 21 -12
31 0 10 -4 18 -10 18 -6 0 -9 -138 -9 -369 0 -339 1 -370 17 -374 16 -4 15 -5
0 -6 -23 -1 -24 -41 -2 -41 8 0 12 -5 9 -10 -4 -6 -11 -8 -16 -5 -5 4 -9 -35
-9 -94 0 -92 2 -103 23 -121 12 -12 29 -27 37 -35 23 -21 68 -35 87 -28 12 5
15 2 10 -10 -4 -11 1 -20 13 -27 17 -9 27 -5 60 22 35 27 40 36 35 60 -4 17
-2 28 4 28 6 0 11 -9 11 -19 0 -10 7 -21 15 -25 8 -3 15 -12 15 -20 0 -9 6
-13 14 -10 11 4 11 -4 -2 -50 -19 -71 -10 -94 53 -130 69 -38 100 -35 124 12
11 20 20 32 21 25 0 -7 7 -10 15 -7 8 4 15 2 16 -2 0 -5 2 -19 5 -32 2 -13 0
-32 -6 -42 -9 -17 -6 -18 43 -13 28 2 58 11 66 19 13 12 12 16 -4 34 -10 11
-13 20 -7 20 7 0 12 7 12 16 0 11 -6 14 -20 9 -17 -5 -20 -2 -20 24 0 18 -10
40 -24 56 -14 15 -28 40 -31 56 -7 32 -25 40 -25 11 0 -25 -37 -26 -45 -1 -4
10 -8 31 -9 46 -2 15 -9 29 -16 31 -8 3 -10 0 -5 -8 5 -8 3 -11 -6 -8 -8 3
-14 19 -14 38 0 41 -18 49 -40 18 l-16 -23 7 28 c3 15 7 35 8 45 0 9 6 21 13
25 7 4 10 19 7 35 -4 19 0 32 10 41 23 19 20 44 -14 113 -33 65 -37 79 -18 60
23 -23 38 -14 31 20 -5 27 -4 30 11 25 10 -4 21 -7 26 -7 5 0 10 -12 12 -27 2
-20 14 -34 42 -50 l40 -22 -27 -7 -28 -6 31 -28 c16 -15 28 -29 25 -31 -2 -3
5 -10 15 -17 25 -16 25 -2 0 43 -16 29 -17 35 -5 35 8 0 15 5 15 12 0 24 38
-25 44 -57 9 -49 86 -125 86 -85 0 6 5 10 12 10 9 0 9 -3 0 -12 -18 -18 -15
-27 13 -38 17 -6 25 -17 25 -33 0 -14 18 -40 47 -69 50 -48 239 -188 254 -188
5 0 9 -9 9 -21 0 -14 5 -19 14 -16 8 3 16 -2 19 -14 4 -13 14 -19 33 -19 21 0
25 -3 17 -11 -8 -8 -20 -6 -45 7 -18 11 -36 23 -39 28 -4 5 -12 5 -18 2 -6 -4
-11 -1 -11 8 0 10 -6 13 -15 10 -8 -4 -15 -1 -15 6 0 7 -7 10 -15 6 -9 -3 -34
6 -57 20 -29 19 -39 22 -35 11 4 -11 2 -14 -9 -10 -8 3 -13 11 -11 17 5 13
-41 15 -60 3 -7 -4 -23 -5 -36 -2 -17 5 -26 2 -30 -9 -4 -9 -13 -16 -21 -16
-28 0 -25 -29 7 -60 22 -22 39 -30 55 -27 13 3 28 -2 35 -12 18 -25 79 -44 89
-28 6 9 15 8 40 -6 22 -13 34 -15 36 -7 3 8 8 8 18 -1 8 -7 18 -8 22 -4 4 4 1
10 -5 12 -7 3 -13 11 -13 19 0 10 6 11 23 5 14 -5 30 -5 40 0 17 10 69 -10 82
-31 3 -5 19 -10 35 -10 15 0 30 -5 32 -11 2 -5 20 -14 41 -19 29 -6 37 -5 34
4 -4 9 3 9 27 -2 30 -14 33 -18 35 -68 l2 -53 -47 3 c-31 2 -49 8 -56 19 -5
10 -32 29 -61 44 -28 14 -57 33 -63 41 -8 12 -13 12 -19 2 -5 -9 -9 -9 -15 -1
-4 7 -15 9 -28 4 -12 -5 -73 -5 -135 0 -95 8 -119 6 -159 -8 -32 -11 -79 -17
-150 -17 -103 0 -123 -4 -152 -34 -24 -23 -19 -35 10 -28 22 6 25 4 22 -12 -2
-11 -8 -19 -13 -19 -6 0 -47 -26 -93 -59 -47 -33 -94 -58 -108 -58 -13 0 -27
-4 -30 -9 -3 -5 -18 -9 -34 -9 -23 0 -31 -6 -36 -24 -7 -30 -39 -40 -60 -19
-13 13 -17 13 -32 1 -9 -8 -35 -16 -57 -17 -53 -4 -65 -16 -65 -66 l0 -43 48
-10 c40 -8 42 -10 15 -11 -60 -2 -41 -30 21 -31 10 0 25 -8 32 -18 12 -14 15
-15 23 -3 5 8 21 16 35 18 20 3 26 -1 26 -16 0 -31 24 -47 92 -60 46 -9 77
-23 116 -52 28 -22 52 -46 52 -53 0 -7 14 -25 32 -40 30 -25 38 -26 143 -26
82 0 116 -4 131 -15 23 -18 117 -20 177 -3 45 11 97 5 97 -12 0 -6 -11 -10
-25 -10 -14 0 -41 -6 -59 -14 -19 -8 -38 -10 -42 -6 -5 4 -37 5 -71 1 -55 -5
-67 -11 -107 -48 -26 -23 -46 -51 -46 -61 0 -11 -9 -31 -20 -45 -20 -25 -20
-26 -1 -32 11 -3 29 0 40 7 18 11 23 10 34 -6 10 -13 16 -15 21 -8 4 7 2 12
-5 12 -10 0 -10 3 -2 11 7 7 19 8 30 4 21 -9 73 -6 88 4 21 16 126 53 132 48
10 -11 -13 -31 -99 -90 -46 -31 -110 -79 -143 -107 -33 -28 -73 -59 -90 -67
-16 -9 -44 -28 -62 -42 -99 -80 -113 -86 -113 -46 0 28 -12 32 -30 10 -26 -32
-42 -18 -36 33 2 26 5 53 5 60 1 6 10 12 21 12 11 0 20 7 20 15 0 9 13 41 30
72 16 31 30 62 30 69 0 7 9 18 20 24 10 6 22 25 25 43 4 20 15 37 28 42 17 8
22 21 25 63 l3 52 -50 0 c-27 0 -53 5 -56 10 -13 21 -25 -2 -19 -35 3 -19 1
-35 -5 -39 -6 -4 -11 0 -11 10 0 13 -3 15 -11 7 -8 -8 -16 -6 -30 8 -21 21
-59 25 -75 9 -6 -6 -30 -20 -55 -33 -25 -12 -50 -34 -57 -50 -7 -15 -17 -27
-23 -27 -5 0 -4 -9 3 -20 10 -16 10 -24 0 -41 -7 -11 -10 -29 -7 -40 4 -10 2
-19 -3 -19 -11 0 -26 28 -26 50 -1 28 -73 25 -115 -4 -20 -14 -44 -26 -52 -26
-7 0 -22 -7 -31 -14 -17 -12 -18 -47 -18 -470 l0 -456 535 0 c298 0 535 4 535
9 0 5 18 11 40 15 25 4 40 12 40 21 0 8 15 17 38 21 20 4 42 11 49 16 7 5 17
7 23 3 5 -3 10 -1 10 4 0 6 5 11 10 11 6 0 10 -12 10 -26 0 -34 21 -27 39 14
15 33 51 45 51 16 0 -18 34 -11 62 13 13 11 30 14 67 9 28 -3 52 -2 56 4 8 14
35 1 35 -18 0 -13 3 -12 20 3 16 14 23 15 34 6 19 -16 76 -11 98 7 16 13 18
13 24 -2 4 -11 14 -16 25 -13 11 3 19 1 19 -4 0 -5 4 -9 8 -9 10 0 32 60 32
88 0 22 17 39 27 28 4 -3 6 -30 4 -59 -2 -40 1 -49 10 -40 6 6 12 27 13 45 1
18 8 42 16 54 18 26 60 41 60 23 0 -10 3 -10 12 -1 15 15 39 15 75 0 15 -6 34
-10 41 -9 6 1 12 -3 12 -9 0 -5 6 -10 13 -10 7 0 18 -5 25 -12 7 -7 31 -11 56
-9 31 2 45 -2 49 -12 8 -21 -2 -28 -29 -21 -18 5 -24 2 -24 -11 0 -11 5 -15
15 -11 17 6 61 -8 58 -18 -7 -16 -1 -13 21 9 21 21 27 23 50 12 14 -7 29 -20
32 -29 6 -19 16 -23 28 -11 4 5 11 8 14 9 4 0 15 4 24 8 15 7 15 9 0 27 -9 10
-31 22 -48 25 -23 4 -31 10 -27 20 4 10 9 12 18 4 9 -7 26 -3 59 16 43 24 46
28 32 43 -24 26 -20 68 6 77 21 6 41 -9 51 -40 3 -8 8 -8 18 1 8 6 34 15 59
20 43 8 45 10 47 46 0 20 -3 40 -8 43 -5 3 -9 -7 -9 -21 0 -15 -6 -33 -14 -41
-35 -35 -37 51 -2 95 6 7 9 26 8 42 -4 35 4 36 35 7 l24 -22 6 22 c6 25 38 30
47 6 3 -8 11 -12 17 -8 9 5 10 -2 6 -25 -5 -24 -3 -31 6 -28 6 2 11 15 9 28
-1 13 2 31 8 39 9 13 12 12 25 -4 8 -11 15 -26 15 -33 0 -19 13 -16 33 7 25
30 57 26 70 -10 13 -34 23 -38 31 -12 3 9 15 23 26 30 24 15 28 9 38 -64 4
-26 12 -45 17 -43 6 2 9 6 9 9 -11 42 -13 80 -4 80 5 0 10 -7 10 -15 0 -8 5
-15 10 -15 6 0 10 12 10 26 0 34 22 27 35 -12 l10 -29 24 22 c35 33 50 29 57
-17 4 -22 11 -43 16 -46 13 -8 37 26 39 56 2 23 2 23 6 3 3 -16 13 -23 36 -25
29 -3 33 -7 44 -52 15 -61 23 -69 23 -24 0 37 21 65 40 53 5 -3 10 -19 10 -35
0 -16 5 -32 10 -35 6 -4 10 11 11 37 0 40 1 41 11 18 11 -25 11 -25 15 -2 10
53 47 -5 58 -90 8 -63 25 -72 25 -14 0 25 5 46 10 46 13 0 30 -43 30 -76 0
-40 17 -19 24 30 7 43 17 54 58 62 12 3 18 -5 20 -29 l4 -32 12 28 c6 15 14
27 16 27 13 0 31 -51 42 -115 8 -50 12 -61 14 -37 4 47 4 50 12 58 8 7 12 -2
22 -48 7 -32 31 -37 39 -8 6 25 34 26 40 2 3 -12 5 -10 7 8 2 24 2 24 11 -5 6
-16 13 -52 17 -78 9 -63 27 -61 27 3 0 40 3 50 17 50 13 0 18 -14 24 -70 4
-47 10 -69 18 -65 6 3 19 8 29 11 21 8 23 24 2 24 -8 0 -15 5 -15 11 0 5 5 7
10 4 6 -4 15 8 21 25 14 38 30 34 42 -11 l9 -34 25 52 c28 56 57 73 73 43 13
-24 13 -40 0 -20 -6 9 -10 10 -10 3 0 -6 5 -15 10 -18 6 -3 7 -17 4 -31 -7
-28 2 -30 34 -8 12 8 22 10 22 5 0 -6 -4 -11 -10 -11 -5 0 -10 -5 -10 -11 0
-7 -8 -18 -17 -25 -15 -11 48 -13 365 -14 l382 0 0 150 c0 86 -4 150 -9 150
-5 0 -16 -7 -25 -15 -8 -8 -20 -15 -27 -15 -10 0 -10 -3 -1 -12 8 -8 7 -18 -6
-40 -19 -32 -25 -34 -42 -13 -16 19 -102 21 -98 2 6 -26 -38 -23 -45 3 -4 16
-14 20 -49 20 -48 0 -74 12 -64 29 5 8 -4 10 -31 6 -41 -7 -89 17 -67 32 6 5
15 23 19 40 3 19 13 33 21 33 20 0 18 -30 -3 -46 -12 -8 -15 -16 -8 -23 15
-14 123 10 118 27 -7 18 22 15 65 -7 45 -23 92 -18 92 10 0 11 7 19 16 19 8 0
13 -4 10 -9 -4 -5 -1 -22 4 -37 14 -35 8 -40 -30 -24 -39 16 -50 6 -22 -22 18
-18 26 -20 49 -12 16 5 28 16 28 24 0 8 10 16 22 18 27 4 38 31 15 38 -56 18
-55 23 6 23 l62 1 -1 1148 c0 631 -3 1140 -6 1132 -3 -8 -15 -23 -25 -34 -17
-15 -22 -16 -29 -5 -14 23 -11 49 6 43 9 -4 18 1 21 11 4 9 13 14 20 11 9 -4
14 2 14 15 0 21 -1 21 -26 4 -25 -16 -26 -16 -48 9 -25 29 -36 33 -36 11 0 -8
-4 -15 -9 -15 -5 0 -8 8 -7 17 1 12 -8 17 -36 19 -39 3 -49 -11 -26 -34 9 -9
8 -12 -5 -12 -10 0 -22 11 -27 25 -11 28 -28 33 -36 10 -4 -8 -10 -13 -15 -10
-4 3 -6 12 -3 19 3 8 0 17 -6 21 -7 4 -14 -2 -17 -14 -3 -12 -9 -21 -14 -21
-5 0 -9 -9 -9 -20 0 -26 -17 -26 -25 -1 -5 16 -14 20 -48 18 -38 -2 -42 0 -40
21 3 22 2 22 -112 18 -63 -2 -115 0 -115 4 0 5 6 10 13 13 6 2 1 2 -13 0 -14
-2 -32 -14 -41 -25 -10 -13 -21 -18 -29 -13 -9 6 -9 9 1 16 10 6 8 9 -8 9 -13
0 -23 6 -23 14 0 15 59 31 98 27 12 -1 22 1 22 6 0 13 -82 14 -107 1 -14 -7
-23 -21 -23 -35 0 -18 -6 -23 -24 -23 -44 0 -76 -18 -76 -42 -1 -22 -1 -22
-15 -4 -8 10 -16 24 -19 30 -3 7 -7 7 -14 -2 -5 -8 -13 -14 -18 -14 -5 0 -15
-3 -23 -6 -18 -7 26 -26 52 -23 10 1 17 -4 17 -13 0 -20 19 -21 26 -1 4 8 17
15 30 15 34 0 76 22 70 36 -3 8 -1 16 4 19 6 4 10 -11 10 -35 0 -29 7 -48 24
-66 15 -17 26 -22 30 -15 4 6 0 11 -11 11 -16 0 -16 1 0 17 13 13 20 15 29 5
20 -20 29 -14 22 14 -5 18 -3 25 3 21 6 -4 13 -24 15 -44 3 -21 7 -45 9 -53 3
-12 -6 -15 -43 -14 -35 0 -48 -4 -48 -14 0 -10 7 -12 23 -9 12 4 29 2 37 -3
18 -12 22 -11 -73 -13 -42 -1 -77 1 -77 5 0 4 -9 12 -20 18 -17 9 -20 8 -20
-9 0 -11 7 -26 15 -35 8 -8 15 -19 15 -25 0 -6 5 -11 12 -11 6 0 8 -3 5 -7 -4
-3 -16 3 -28 15 -14 16 -27 20 -44 16 -19 -5 -25 -2 -25 11 0 14 3 15 14 6 8
-7 17 -8 20 -3 10 16 -7 22 -41 16 -28 -5 -33 -3 -33 13 0 25 -19 43 -37 36
-13 -5 -13 -3 -3 18 12 22 12 23 -3 10 -15 -12 -17 -11 -17 3 0 11 -10 16 -32
17 -34 1 -32 3 15 13 27 6 36 29 17 41 -17 11 -91 14 -85 4 4 -5 -12 -9 -34
-9 -32 0 -39 3 -35 15 4 8 14 15 23 15 13 0 13 2 2 9 -7 5 -26 7 -41 5 -22 -4
-29 0 -33 18 -6 22 -10 23 -106 23 -55 0 -103 -3 -107 -8 -4 -4 3 -18 16 -32
18 -19 20 -26 9 -30 -8 -3 -15 -19 -16 -37 -3 -40 -11 -47 -28 -24 -9 11 -31
20 -57 23 l-43 5 0 66 c0 69 -18 96 -28 42 -5 -24 -12 -30 -31 -30 -13 0 -26
-5 -28 -11 -2 -7 -9 -5 -17 5 -12 14 -11 16 9 16 33 0 18 25 -16 26 -17 0 -35
3 -41 7 -7 4 -15 2 -18 -4 -8 -13 -65 38 -65 58 0 7 -4 13 -10 13 -5 0 -47 28
-92 62 -69 50 -194 118 -328 176 -19 8 32 11 208 11 l233 1 65 37 64 37 -2
311 -3 310 -83 41 c-141 70 -326 124 -521 150 -115 15 -405 25 -511 18z m2638
-1451 c-22 -23 -95 -63 -116 -63 -5 0 -15 -7 -22 -15 -7 -8 -16 -15 -20 -15
-10 0 -6 68 5 93 11 25 -1 33 -20 13 -18 -18 -55 -22 -55 -6 0 6 7 10 16 10
11 0 15 6 11 20 -3 11 -1 20 4 20 5 0 9 -4 9 -8 0 -5 7 -9 15 -9 8 0 15 4 15
9 0 4 6 8 14 8 8 0 13 -7 12 -16 0 -9 5 -19 12 -21 6 -3 12 3 13 14 0 16 1 16
9 -2 5 -11 9 -16 9 -11 1 5 10 -1 20 -13 21 -24 44 -21 35 4 -3 7 0 24 7 36
l12 23 19 -24 c18 -23 18 -23 -4 -47z m-226 -93 c17 -30 17 -31 -8 -40 -14 -6
-29 -10 -33 -10 -5 0 -14 -6 -20 -14 -6 -8 -32 -19 -56 -25 -25 -6 -45 -16
-45 -21 0 -5 -13 -8 -30 -6 -16 2 -27 0 -25 -5 3 -4 0 -11 -6 -15 -6 -4 -16 1
-21 10 -5 9 -13 14 -19 11 -5 -4 -19 1 -30 9 -21 14 -20 15 18 11 22 -2 46 1
54 6 16 10 8 12 -33 9 -20 -1 -28 3 -28 15 0 10 7 15 17 13 11 -2 22 6 28 20
11 25 25 29 25 8 0 -8 7 -16 15 -20 8 -3 15 -15 15 -27 0 -17 3 -19 14 -10 7
6 21 9 30 5 9 -3 16 -1 16 5 0 6 -11 11 -25 11 -26 0 -33 14 -13 26 6 4 14 2
16 -4 4 -14 22 -16 22 -4 0 5 -11 15 -25 22 -14 7 -25 17 -25 21 0 11 78 -29
83 -43 3 -8 6 -5 6 6 1 15 4 16 16 6 12 -10 16 -8 25 15 5 14 10 31 10 36 0
18 15 8 32 -21z m-742 -16 c15 -38 12 -49 -7 -32 -27 22 -47 12 -72 -34 l-21
-41 40 7 c34 5 40 4 40 -12 0 -10 -5 -23 -11 -29 -8 -8 -6 -15 10 -25 26 -16
27 -28 2 -28 -11 0 -23 -9 -26 -21 -5 -16 -10 -18 -21 -8 -11 9 -14 9 -14 0 0
-12 -14 -10 -57 6 -7 3 -13 -1 -13 -9 0 -15 -33 -18 -46 -5 -4 3 -15 2 -25 -3
-14 -8 -18 -6 -22 13 -3 18 -5 17 -6 -7 -1 -26 -3 -28 -32 -22 -18 3 -38 1
-45 -5 -8 -6 -23 -9 -34 -6 -11 3 -23 1 -26 -4 -3 -5 -18 -9 -34 -9 -16 0 -31
-4 -35 -9 -3 -6 -22 -9 -43 -7 l-37 2 -3 91 c-3 88 -2 92 20 96 l23 4 -22 8
c-24 8 -29 20 -14 30 10 6 51 -32 51 -48 0 -5 9 -7 20 -4 11 3 20 2 20 -3 0
-4 17 -11 38 -16 29 -6 32 -9 15 -12 -32 -5 -28 -19 7 -27 35 -8 51 0 43 20
-3 9 1 15 10 15 8 0 18 -6 20 -12 3 -7 6 -3 6 10 1 12 6 22 11 22 6 0 10 9 10
20 0 11 4 20 9 20 5 0 8 -11 5 -23 -3 -18 3 -27 21 -37 14 -7 25 -21 25 -31 0
-9 7 -20 16 -23 25 -9 74 -7 74 4 0 5 13 7 28 4 31 -6 59 16 47 37 -6 8 -10 7
-16 -2 -8 -11 -12 -10 -25 6 -9 13 -17 16 -22 9 -4 -5 -16 -10 -27 -11 -11 0
-29 -4 -39 -8 -16 -7 -18 -5 -13 8 4 10 2 17 -4 17 -6 0 -9 6 -6 14 4 10 0 12
-14 9 -10 -3 -19 -1 -19 5 0 6 -3 18 -7 28 -5 14 -3 16 11 11 12 -5 19 0 26
19 9 22 15 25 47 22 20 -2 39 -9 41 -17 3 -9 0 -12 -9 -9 -16 6 -44 -18 -31
-26 16 -10 51 6 67 30 8 13 22 24 30 24 8 0 20 9 27 20 17 27 27 25 38 -6z
m180 -19 c37 -19 39 -28 4 -19 -24 6 -25 5 -16 -12 6 -12 23 -19 47 -21 20 -1
42 -7 49 -12 18 -15 58 -2 51 17 -6 15 10 32 30 32 6 0 3 -5 -5 -10 -11 -7
-12 -10 -2 -10 19 0 39 -23 35 -37 -3 -7 7 -15 21 -19 31 -7 50 -29 40 -45 -5
-9 -11 -7 -20 5 -9 13 -17 15 -31 8 -10 -5 -29 -9 -43 -8 -14 1 -31 -2 -38 -8
-9 -7 -16 -6 -21 2 -4 7 -15 10 -24 6 -13 -4 -17 -1 -17 14 0 24 -16 37 -25
22 -3 -5 -17 -10 -31 -10 -15 0 -23 -4 -19 -11 9 -13 -25 -38 -42 -32 -8 3
-13 -3 -13 -16 0 -23 -7 -26 -28 -12 -11 7 -10 9 3 15 9 3 14 10 10 15 -3 5
-1 12 5 16 5 3 10 11 10 16 0 13 -73 8 -82 -5 -13 -20 -19 2 -6 24 9 14 20 20
36 17 26 -5 38 8 23 26 -8 10 -3 12 23 9 27 -3 34 0 39 17 3 13 -1 25 -11 31
-30 17 15 12 48 -5z m-2695 -434 c1 -176 -2 -325 -6 -333 -5 -7 -10 111 -11
267 -1 154 -3 263 -5 243 -3 -31 -8 -38 -25 -38 -12 0 -18 -3 -15 -6 3 -4 2
-15 -4 -25 -7 -14 -6 -17 4 -13 8 3 18 -6 25 -21 13 -29 16 -85 4 -85 -8 0
-80 47 -98 64 -6 6 -57 43 -114 81 -117 80 -192 146 -172 153 7 2 19 -1 26 -7
7 -6 21 -9 30 -5 9 3 16 1 16 -5 0 -6 11 -11 24 -11 14 0 33 -11 44 -25 11
-14 24 -25 30 -25 5 0 32 -18 58 -40 27 -22 54 -40 61 -40 6 0 20 11 31 25 11
14 24 25 29 25 9 0 13 13 14 53 0 9 6 17 14 17 7 0 16 -8 18 -17 3 -10 5 9 6
41 0 33 4 57 7 53 4 -3 8 -150 9 -326z m2677 -1294 c5 -8 8 -8 8 -1 0 7 26 12
68 14 37 1 72 2 77 2 44 2 182 -16 193 -24 7 -6 31 -8 58 -4 51 7 97 -1 88
-15 -3 -5 -20 -7 -37 -4 -18 3 -56 0 -86 -8 -54 -14 -54 -14 -21 -20 18 -4 57
-7 86 -7 61 0 75 -19 17 -22 -56 -2 -61 -3 -69 -11 -4 -4 11 -7 34 -7 45 0 53
-6 42 -34 -5 -15 -9 -16 -15 -7 -5 9 -10 10 -14 2 -4 -5 -30 -12 -59 -15 -31
-3 -50 -1 -47 5 9 14 -36 27 -101 29 -89 2 -106 1 -99 -9 3 -5 1 -12 -5 -16
-6 -3 -13 1 -16 9 -4 10 -31 19 -80 27 -41 6 -74 16 -74 21 0 6 6 8 14 5 28
-11 176 -19 176 -10 0 5 -57 15 -127 22 -71 7 -129 16 -131 21 -2 5 -14 5 -29
-1 -30 -11 -30 -11 -35 16 -2 14 2 20 16 18 10 0 32 5 50 13 l31 13 -40 2
c-37 2 -38 2 -7 6 17 2 32 8 32 12 0 13 93 -7 102 -22z m-2357 -51 c24 -1 45
-14 45 -26 0 -6 -10 -6 -24 0 -18 7 -28 5 -37 -6 -15 -18 2 -34 38 -34 12 0
24 -4 27 -8 10 -16 -10 -29 -56 -36 -27 -4 -48 -12 -48 -17 0 -6 5 -7 10 -4
11 7 12 0 4 -32 -7 -24 -30 -31 -36 -11 -6 18 -78 21 -78 3 0 -21 -8 -19 -41
13 -26 24 -29 31 -23 67 8 49 14 61 24 45 5 -8 13 -9 21 -4 18 11 40 11 63 1
25 -12 41 12 19 28 -27 20 -5 38 36 29 20 -4 45 -7 56 -8z m105 -66 c6 0 10 5
10 10 0 25 17 7 26 -27 10 -42 34 -58 27 -19 -3 14 -2 34 1 43 7 16 9 16 25
-6 17 -22 18 -22 35 -6 17 17 17 16 10 -21 -13 -65 -11 -99 6 -96 8 2 12 1 8
-3 -3 -4 0 -25 8 -47 17 -50 17 -58 2 -58 -19 1 -49 47 -47 72 5 52 1 59 -28
52 -39 -9 -54 -24 -48 -45 5 -14 1 -19 -14 -19 -25 0 -38 20 -20 31 8 5 9 9 3
9 -18 0 -24 40 -11 62 10 16 9 21 -5 29 -14 7 -18 22 -17 57 1 46 1 46 10 15
5 -18 14 -33 19 -33z m294 -136 c13 -8 27 -25 30 -38 4 -16 15 -25 36 -29 23
-5 30 -12 30 -30 0 -13 -5 -28 -12 -35 -9 -9 -9 -15 0 -24 9 -9 12 -7 12 11 0
16 5 21 18 19 9 -2 16 -12 16 -21 -1 -10 3 -16 10 -14 6 2 10 18 8 35 -2 23 1
32 12 32 19 0 40 -36 32 -56 -3 -8 -1 -14 4 -14 6 0 10 11 10 25 0 15 6 25 15
25 16 0 17 -40 1 -51 -4 -4 -3 -16 3 -27 16 -30 14 -62 -5 -62 -10 0 -14 5
-10 15 7 21 -23 32 -35 14 -8 -12 -11 -11 -22 2 -6 9 -18 14 -24 12 -7 -3 -13
0 -13 6 0 5 -17 13 -37 17 -21 3 -44 13 -50 22 -8 9 -13 11 -13 4 0 -18 -21
-15 -36 6 -13 16 -13 16 -14 -1 0 -10 -5 -15 -10 -12 -7 4 -7 12 0 25 7 13 7
21 0 25 -5 3 -10 10 -10 15 0 10 40 1 58 -13 7 -5 15 -8 17 -5 8 7 -6 38 -16
38 -5 0 -9 9 -9 20 0 11 -9 29 -20 40 -12 12 -18 25 -15 30 8 13 12 13 39 -6z"/>
<path d="M3544 3329 c-8 -8 -14 -21 -14 -27 0 -6 -13 -20 -30 -32 -36 -25 -41
-55 -9 -45 12 4 24 3 28 -1 11 -16 106 -43 129 -37 12 3 22 1 22 -3 0 -11 52
-10 69 0 16 10 28 -2 34 -34 4 -24 4 -24 6 3 1 33 16 36 25 5 6 -23 6 -23 24
4 l18 27 18 -20 c11 -14 23 -18 34 -13 50 22 146 15 136 -10 -4 -10 5 -13 35
-13 22 0 47 -6 56 -13 8 -7 22 -10 30 -6 9 3 14 2 11 -3 -8 -13 41 -29 103
-35 44 -4 60 -1 84 16 40 29 22 42 -61 43 -48 1 -76 7 -97 21 -18 12 -47 19
-75 19 -44 0 -45 1 -48 33 -3 30 -10 36 -39 33 -7 -1 -15 10 -19 24 -5 19 -19
31 -48 43 -22 9 -47 15 -53 14 -7 -2 -13 4 -13 13 0 17 -11 20 -25 6 -6 -5
-34 -12 -63 -15 -29 -3 -56 -7 -60 -10 -8 -5 -99 10 -122 21 -28 12 -71 8 -86
-8z"/>
<path d="M4905 3132 c-6 -5 -57 -24 -115 -42 -58 -18 -109 -36 -114 -41 -12
-11 39 -30 59 -23 8 4 22 1 30 -6 8 -7 15 -9 15 -5 0 4 6 2 14 -4 11 -10 16
-9 23 3 4 8 15 16 23 18 8 2 25 16 37 32 l22 28 6 -38 c10 -60 11 -61 44 -56
28 4 45 22 21 22 -18 0 -10 19 11 25 17 6 20 14 17 48 -3 41 -4 42 -43 45 -22
2 -45 -1 -50 -6z"/>
<path d="M2811 260 c-1 -19 -88 -25 -152 -11 -38 9 -46 8 -59 -9 -8 -10 -30
-22 -49 -27 -27 -7 -36 -16 -47 -48 -17 -51 -17 -55 1 -55 8 0 15 6 15 14 0 9
9 14 20 13 11 -1 20 -5 20 -10 0 -5 8 -6 19 -2 15 4 20 -1 25 -27 l7 -33 14
30 c8 17 21 39 29 49 16 20 16 20 30 0 16 -21 14 -22 31 31 8 26 33 17 37 -12
2 -22 8 -28 26 -27 12 0 22 -3 22 -8 0 -18 28 -6 38 17 8 17 20 25 38 25 l25
0 -20 26 c-12 15 -21 35 -21 45 0 10 -5 21 -12 25 -8 5 -9 2 -5 -9 3 -9 2 -19
-4 -22 -5 -4 -13 4 -18 17 -6 13 -10 16 -10 8z"/>
</g>
</svg>
